<svg width="15" height="25" viewBox="0 0 15 25" fill="none" xmlns="http://www.w3.org/2000/svg">
<rect y="1.24219" width="14.9176" height="23.0982" fill="#E9ECF8"/>
<path fill-rule="evenodd" clip-rule="evenodd" d="M11.2583 10.9955C11.2374 11.1248 11.1865 11.2479 11.1094 11.3555C11.0322 11.4631 10.9309 11.5525 10.8129 11.6169C10.5754 11.7651 10.3676 11.8392 10.1572 11.9133C9.70939 12.0627 9.23802 12.2121 8.73944 12.3854C8.21364 12.5587 7.74227 12.732 7.32163 12.8575C6.79707 13.0308 6.29848 13.1802 5.82464 13.3535C5.46815 13.5009 5.13329 13.693 4.82871 13.9248C4.54544 14.1727 4.29824 14.4566 4.09383 14.7686C3.88351 15.1152 3.75113 15.5622 3.75113 16.0833C3.75113 17.1266 4.01341 17.9202 4.53921 18.4162C5.06378 18.9385 6.0362 19.1859 7.47751 19.1859C8.94728 19.1859 9.94445 18.9134 10.4715 18.3672C10.9948 17.821 11.2571 17.0525 11.2571 16.0606V10.9955H11.2583ZM7.47875 0C10.0521 0 11.9413 0.472088 13.1475 1.44017C14.355 2.38434 14.9587 3.59863 14.9587 5.0376V17.2999C14.9587 17.7959 14.8548 18.3421 14.6717 18.9373C14.4861 19.5349 14.1199 20.0799 13.5422 20.5747C12.9916 21.073 12.2308 21.4949 11.2596 21.8176C10.2884 22.1403 9.02894 22.3136 7.47999 22.3136C5.93351 22.3136 4.67159 22.1403 3.70164 21.8176C2.73169 21.4949 1.96959 21.073 1.41905 20.5747C0.906891 20.1288 0.51891 19.5658 0.290737 18.9373C0.10516 18.3433 0 17.7971 0 17.3011V15.3411C0 14.2977 0.288263 13.3296 0.866026 12.4846C1.44379 11.6169 2.25662 11.0218 3.30698 10.6489C3.83155 10.4756 4.43529 10.3023 5.11698 10.0788C5.7999 9.85409 6.42839 9.63059 7.05935 9.43339C7.69031 9.2338 8.24085 9.03421 8.71222 8.85972C8.99668 8.74977 9.28558 8.65089 9.57825 8.56332L10.0508 8.33982C10.2364 8.24062 10.4183 8.09123 10.6026 7.89283C10.7857 7.69563 10.9429 7.47214 11.0752 7.22354C11.2151 6.95435 11.2872 6.65705 11.2856 6.35586V5.56108C11.2875 5.26979 11.2242 4.98154 11.1 4.7161C10.9961 4.41731 10.7857 4.14481 10.4975 3.89741C10.2092 3.64882 9.81455 3.45042 9.34318 3.29983C8.87058 3.15283 8.24209 3.07754 7.53195 3.07754C6.06218 3.07754 5.09099 3.35242 4.56643 3.92132C4.12105 4.4185 3.85876 5.03879 3.8068 5.73318C3.8068 5.88257 3.67566 5.98177 3.5173 5.98177L0.316718 6.03197C0.240691 6.03229 0.16761 6.00358 0.113389 5.9521C0.0591676 5.90061 0.0281961 5.83052 0.027218 5.75708V5.03999C0.027218 4.34321 0.159596 3.69782 0.447859 3.07754C0.737359 2.45605 1.18398 1.93616 1.78649 1.48797C2.39023 1.04218 3.17831 0.670484 4.12228 0.421891C5.04151 0.123101 6.16981 0 7.48123 0H7.47875Z" fill="#0A3871"/>
</svg>
